<?xml version="1.0" encoding="UTF-8" standalone="no"?>
<!DOCTYPE svg PUBLIC "-//W3C//DTD SVG 1.1//EN"
 "http://www.w3.org/Graphics/SVG/1.1/DTD/svg11.dtd">
<!-- Generated by graphviz version 2.40.1 (20161225.0304)
 -->
<!-- Title: dependencies Pages: 1 -->
<svg width="504pt" height="284pt"
     viewBox="0.00 0.00 504.00 284.00" xmlns="http://www.w3.org/2000/svg">
<g id="graph0" class="graph" transform="scale(1 1) rotate(0) translate(4 280)">
<title>dependencies</title>
<polygon fill="#ffffff" stroke="transparent" points="-4,4 -4,-280 500,-280 500,4 -4,4"/>
<text text-anchor="start" x="227.0091" y="-42.4" font-family="sans-serif" font-weight="bold" font-size="14.00" fill="#000000">Legend</text>
<polygon fill="#ffffb3" stroke="transparent" points="14,-10 14,-30 34,-30 34,-10 14,-10"/>
<text text-anchor="start" x="37.629" y="-15.4" font-family="sans-serif" font-size="14.00" fill="#000000"> &#160;Declarations</text>
<polygon fill="#8dd3c7" stroke="transparent" points="127,-10 127,-30 147,-30 147,-10 127,-10"/>
<text text-anchor="start" x="150.7251" y="-15.4" font-family="sans-serif" font-size="14.00" fill="#000000"> &#160;Module</text>
<polygon fill="#80b1d3" stroke="transparent" points="213,-10 213,-30 233,-30 233,-10 213,-10"/>
<text text-anchor="start" x="236.7812" y="-15.4" font-family="sans-serif" font-size="14.00" fill="#000000"> &#160;Bootstrap</text>
<polygon fill="#fdb462" stroke="transparent" points="310,-10 310,-30 330,-30 330,-10 310,-10"/>
<text text-anchor="start" x="333.6732" y="-15.4" font-family="sans-serif" font-size="14.00" fill="#000000"> &#160;Providers</text>
<polygon fill="#fb8072" stroke="transparent" points="406,-10 406,-30 426,-30 426,-10 406,-10"/>
<text text-anchor="start" x="429.7258" y="-15.4" font-family="sans-serif" font-size="14.00" fill="#000000"> &#160;Exports</text>
<g id="clust1" class="cluster">
<title>cluster_SwissArmyKnifeModule</title>
<polygon fill="none" stroke="#000000" stroke-dasharray="1,5" points="30,-70 30,-268 466,-268 466,-70 30,-70"/>
</g>
<g id="clust2" class="cluster">
<title>cluster_SwissArmyKnifeModule_declarations</title>
<polygon fill="none" stroke="#000000" points="42,-78 42,-130 454,-130 454,-78 42,-78"/>
</g>
<g id="clust6" class="cluster">
<title>cluster_SwissArmyKnifeModule_exports</title>
<polygon fill="none" stroke="#000000" points="38,-208 38,-260 458,-260 458,-208 38,-208"/>
</g>
<!-- NgIonicSyncFormcontrolClassesDirective -->
<g id="node1" class="node">
<title>NgIonicSyncFormcontrolClassesDirective</title>
<polygon fill="#ffffb3" stroke="#000000" points="445.9328,-122 192.0672,-122 192.0672,-86 445.9328,-86 445.9328,-122"/>
<text text-anchor="middle" x="319" y="-99.8" font-family="Times,serif" font-size="14.00" fill="#000000">NgIonicSyncFormcontrolClassesDirective</text>
</g>
<!-- SwissArmyKnifeModule -->
<g id="node3" class="node">
<title>SwissArmyKnifeModule</title>
<polygon fill="#8dd3c7" stroke="#000000" points="293.2492,-187 290.2492,-191 269.2492,-191 266.2492,-187 136.7508,-187 136.7508,-151 293.2492,-151 293.2492,-187"/>
<text text-anchor="middle" x="215" y="-164.8" font-family="Times,serif" font-size="14.00" fill="#000000">SwissArmyKnifeModule</text>
</g>
<!-- NgIonicSyncFormcontrolClassesDirective&#45;&gt;SwissArmyKnifeModule -->
<g id="edge1" class="edge">
<title>NgIonicSyncFormcontrolClassesDirective&#45;&gt;SwissArmyKnifeModule</title>
<path fill="none" stroke="#000000" d="M242.7041,-122.1061C242.7041,-122.1061 242.7041,-140.991 242.7041,-140.991"/>
<polygon fill="#000000" stroke="#000000" points="239.2041,-140.9909 242.7041,-150.991 246.2041,-140.991 239.2041,-140.9909"/>
</g>
<!-- RoundNumberPipe -->
<g id="node2" class="node">
<title>RoundNumberPipe</title>
<polygon fill="#ffffb3" stroke="#000000" points="174.0968,-122 49.9032,-122 49.9032,-86 174.0968,-86 174.0968,-122"/>
<text text-anchor="middle" x="112" y="-99.8" font-family="Times,serif" font-size="14.00" fill="#000000">RoundNumberPipe</text>
</g>
<!-- RoundNumberPipe&#45;&gt;SwissArmyKnifeModule -->
<g id="edge2" class="edge">
<title>RoundNumberPipe&#45;&gt;SwissArmyKnifeModule</title>
<path fill="none" stroke="#000000" d="M155.337,-122.1061C155.337,-122.1061 155.337,-140.991 155.337,-140.991"/>
<polygon fill="#000000" stroke="#000000" points="151.837,-140.9909 155.337,-150.991 158.837,-140.991 151.837,-140.9909"/>
</g>
<!-- NgIonicSyncFormcontrolClassesDirective  -->
<g id="node4" class="node">
<title>NgIonicSyncFormcontrolClassesDirective </title>
<polygon fill="#fb8072" stroke="#000000" points="449.9332,-252 192.0668,-252 192.0668,-216 449.9332,-216 449.9332,-252"/>
<text text-anchor="middle" x="321" y="-229.8" font-family="Times,serif" font-size="14.00" fill="#000000">NgIonicSyncFormcontrolClassesDirective </text>
</g>
<!-- SwissArmyKnifeModule&#45;&gt;NgIonicSyncFormcontrolClassesDirective  -->
<g id="edge3" class="edge">
<title>SwissArmyKnifeModule&#45;&gt;NgIonicSyncFormcontrolClassesDirective </title>
<path fill="none" stroke="#000000" stroke-dasharray="5,2" d="M242.8291,-187.1061C242.8291,-187.1061 242.8291,-205.991 242.8291,-205.991"/>
<polygon fill="#000000" stroke="#000000" points="239.3291,-205.9909 242.8291,-215.991 246.3291,-205.991 239.3291,-205.9909"/>
</g>
<!-- RoundNumberPipe  -->
<g id="node5" class="node">
<title>RoundNumberPipe </title>
<polygon fill="#fb8072" stroke="#000000" points="173.5974,-252 46.4026,-252 46.4026,-216 173.5974,-216 173.5974,-252"/>
<text text-anchor="middle" x="110" y="-229.8" font-family="Times,serif" font-size="14.00" fill="#000000">RoundNumberPipe </text>
</g>
<!-- SwissArmyKnifeModule&#45;&gt;RoundNumberPipe  -->
<g id="edge4" class="edge">
<title>SwissArmyKnifeModule&#45;&gt;RoundNumberPipe </title>
<path fill="none" stroke="#000000" stroke-dasharray="5,2" d="M155.212,-187.1061C155.212,-187.1061 155.212,-205.991 155.212,-205.991"/>
<polygon fill="#000000" stroke="#000000" points="151.712,-205.9909 155.212,-215.991 158.712,-205.991 151.712,-205.9909"/>
</g>
</g>
</svg>
