<?xml version="1.0" encoding="UTF-8" standalone="no"?>
<!DOCTYPE svg PUBLIC "-//W3C//DTD SVG 1.1//EN"
 "http://www.w3.org/Graphics/SVG/1.1/DTD/svg11.dtd">
<!-- Generated by graphviz version 2.40.1 (20161225.0304)
 -->
<!-- Title: dependencies Pages: 1 -->
<svg width="652pt" height="284pt"
     viewBox="0.00 0.00 652.00 284.00" xmlns="http://www.w3.org/2000/svg">
<g id="graph0" class="graph" transform="scale(1 1) rotate(0) translate(4 280)">
<title>dependencies</title>
<polygon fill="#ffffff" stroke="transparent" points="-4,4 -4,-280 648,-280 648,4 -4,4"/>
<text text-anchor="start" x="301.0091" y="-42.4" font-family="sans-serif" font-weight="bold" font-size="14.00" fill="#000000">Legend</text>
<polygon fill="#ffffb3" stroke="transparent" points="88,-10 88,-30 108,-30 108,-10 88,-10"/>
<text text-anchor="start" x="111.629" y="-15.4" font-family="sans-serif" font-size="14.00" fill="#000000"> &#160;Declarations</text>
<polygon fill="#8dd3c7" stroke="transparent" points="201,-10 201,-30 221,-30 221,-10 201,-10"/>
<text text-anchor="start" x="224.7251" y="-15.4" font-family="sans-serif" font-size="14.00" fill="#000000"> &#160;Module</text>
<polygon fill="#80b1d3" stroke="transparent" points="287,-10 287,-30 307,-30 307,-10 287,-10"/>
<text text-anchor="start" x="310.7812" y="-15.4" font-family="sans-serif" font-size="14.00" fill="#000000"> &#160;Bootstrap</text>
<polygon fill="#fdb462" stroke="transparent" points="384,-10 384,-30 404,-30 404,-10 384,-10"/>
<text text-anchor="start" x="407.6732" y="-15.4" font-family="sans-serif" font-size="14.00" fill="#000000"> &#160;Providers</text>
<polygon fill="#fb8072" stroke="transparent" points="480,-10 480,-30 500,-30 500,-10 480,-10"/>
<text text-anchor="start" x="503.7258" y="-15.4" font-family="sans-serif" font-size="14.00" fill="#000000"> &#160;Exports</text>
<g id="clust1" class="cluster">
<title>cluster_SwissArmyKnifeModule</title>
<polygon fill="none" stroke="#000000" stroke-dasharray="1,5" points="8,-70 8,-268 636,-268 636,-70 8,-70"/>
</g>
<g id="clust2" class="cluster">
<title>cluster_SwissArmyKnifeModule_declarations</title>
<polygon fill="none" stroke="#000000" points="22,-78 22,-130 622,-130 622,-78 22,-78"/>
</g>
<g id="clust7" class="cluster">
<title>cluster_SwissArmyKnifeModule_exports</title>
<polygon fill="none" stroke="#000000" points="16,-208 16,-260 628,-260 628,-208 16,-208"/>
</g>
<!-- NgIonicSyncFormcontrolClassesDirective -->
<g id="node1" class="node">
<title>NgIonicSyncFormcontrolClassesDirective</title>
<polygon fill="#ffffb3" stroke="#000000" points="613.9328,-122 360.0672,-122 360.0672,-86 613.9328,-86 613.9328,-122"/>
<text text-anchor="middle" x="487" y="-99.8" font-family="Times,serif" font-size="14.00" fill="#000000">NgIonicSyncFormcontrolClassesDirective</text>
</g>
<!-- SwissArmyKnifeModule -->
<g id="node4" class="node">
<title>SwissArmyKnifeModule</title>
<polygon fill="#8dd3c7" stroke="#000000" points="358.2492,-187 355.2492,-191 334.2492,-191 331.2492,-187 201.7508,-187 201.7508,-151 358.2492,-151 358.2492,-187"/>
<text text-anchor="middle" x="280" y="-164.8" font-family="Times,serif" font-size="14.00" fill="#000000">SwissArmyKnifeModule</text>
</g>
<!-- NgIonicSyncFormcontrolClassesDirective&#45;&gt;SwissArmyKnifeModule -->
<g id="edge1" class="edge">
<title>NgIonicSyncFormcontrolClassesDirective&#45;&gt;SwissArmyKnifeModule</title>
<path fill="none" stroke="#000000" d="M360.0489,-104C353.8933,-104 350.2115,-104 350.2115,-104 350.2115,-104 350.2115,-140.8939 350.2115,-140.8939"/>
<polygon fill="#000000" stroke="#000000" points="346.7115,-140.8938 350.2115,-150.8939 353.7115,-140.8939 346.7115,-140.8938"/>
</g>
<!-- RoundNumberPipe -->
<g id="node2" class="node">
<title>RoundNumberPipe</title>
<polygon fill="#ffffb3" stroke="#000000" points="342.0968,-122 217.9032,-122 217.9032,-86 342.0968,-86 342.0968,-122"/>
<text text-anchor="middle" x="280" y="-99.8" font-family="Times,serif" font-size="14.00" fill="#000000">RoundNumberPipe</text>
</g>
<!-- RoundNumberPipe&#45;&gt;SwissArmyKnifeModule -->
<g id="edge2" class="edge">
<title>RoundNumberPipe&#45;&gt;SwissArmyKnifeModule</title>
<path fill="none" stroke="#000000" d="M280,-122.1061C280,-122.1061 280,-140.991 280,-140.991"/>
<polygon fill="#000000" stroke="#000000" points="276.5001,-140.9909 280,-150.991 283.5001,-140.991 276.5001,-140.9909"/>
</g>
<!-- ShadowDomStyleDirective -->
<g id="node3" class="node">
<title>ShadowDomStyleDirective</title>
<polygon fill="#ffffb3" stroke="#000000" points="199.9622,-122 30.0378,-122 30.0378,-86 199.9622,-86 199.9622,-122"/>
<text text-anchor="middle" x="115" y="-99.8" font-family="Times,serif" font-size="14.00" fill="#000000">ShadowDomStyleDirective</text>
</g>
<!-- ShadowDomStyleDirective&#45;&gt;SwissArmyKnifeModule -->
<g id="edge3" class="edge">
<title>ShadowDomStyleDirective&#45;&gt;SwissArmyKnifeModule</title>
<path fill="none" stroke="#000000" d="M200.0015,-104C206.0266,-104 209.7886,-104 209.7886,-104 209.7886,-104 209.7886,-140.8939 209.7886,-140.8939"/>
<polygon fill="#000000" stroke="#000000" points="206.2886,-140.8938 209.7886,-150.8939 213.2886,-140.8939 206.2886,-140.8938"/>
</g>
<!-- NgIonicSyncFormcontrolClassesDirective  -->
<g id="node5" class="node">
<title>NgIonicSyncFormcontrolClassesDirective </title>
<polygon fill="#fb8072" stroke="#000000" points="619.9332,-252 362.0668,-252 362.0668,-216 619.9332,-216 619.9332,-252"/>
<text text-anchor="middle" x="491" y="-229.8" font-family="Times,serif" font-size="14.00" fill="#000000">NgIonicSyncFormcontrolClassesDirective </text>
</g>
<!-- SwissArmyKnifeModule&#45;&gt;NgIonicSyncFormcontrolClassesDirective  -->
<g id="edge4" class="edge">
<title>SwissArmyKnifeModule&#45;&gt;NgIonicSyncFormcontrolClassesDirective </title>
<path fill="none" stroke="#000000" stroke-dasharray="5,2" d="M351.0865,-187.1061C351.0865,-206.3391 351.0865,-234 351.0865,-234 351.0865,-234 352.1843,-234 352.1843,-234"/>
<polygon fill="#000000" stroke="#000000" points="352.0653,-237.5001 362.0652,-234 352.0652,-230.5001 352.0653,-237.5001"/>
</g>
<!-- RoundNumberPipe  -->
<g id="node6" class="node">
<title>RoundNumberPipe </title>
<polygon fill="#fb8072" stroke="#000000" points="343.5974,-252 216.4026,-252 216.4026,-216 343.5974,-216 343.5974,-252"/>
<text text-anchor="middle" x="280" y="-229.8" font-family="Times,serif" font-size="14.00" fill="#000000">RoundNumberPipe </text>
</g>
<!-- SwissArmyKnifeModule&#45;&gt;RoundNumberPipe  -->
<g id="edge5" class="edge">
<title>SwissArmyKnifeModule&#45;&gt;RoundNumberPipe </title>
<path fill="none" stroke="#000000" stroke-dasharray="5,2" d="M280,-187.1061C280,-187.1061 280,-205.991 280,-205.991"/>
<polygon fill="#000000" stroke="#000000" points="276.5001,-205.9909 280,-215.991 283.5001,-205.991 276.5001,-205.9909"/>
</g>
<!-- ShadowDomStyleDirective  -->
<g id="node7" class="node">
<title>ShadowDomStyleDirective </title>
<polygon fill="#fb8072" stroke="#000000" points="197.9628,-252 24.0372,-252 24.0372,-216 197.9628,-216 197.9628,-252"/>
<text text-anchor="middle" x="111" y="-229.8" font-family="Times,serif" font-size="14.00" fill="#000000">ShadowDomStyleDirective </text>
</g>
<!-- SwissArmyKnifeModule&#45;&gt;ShadowDomStyleDirective  -->
<g id="edge6" class="edge">
<title>SwissArmyKnifeModule&#45;&gt;ShadowDomStyleDirective </title>
<path fill="none" stroke="#000000" stroke-dasharray="5,2" d="M208.9136,-187.1061C208.9136,-206.3391 208.9136,-234 208.9136,-234 208.9136,-234 207.8283,-234 207.8283,-234"/>
<polygon fill="#000000" stroke="#000000" points="208.061,-230.5001 198.061,-234 208.0609,-237.5001 208.061,-230.5001"/>
</g>
</g>
</svg>
